<svg xmlns="http://www.w3.org/2000/svg" xmlns:xlink="http://www.w3.org/1999/xlink" id="visual" version="1.1" viewBox="0 0 900 255"><path d="M0 158L82 158L82 203L164 203L164 197L245 197L245 253L327 253L327 208L409 208L409 200L491 200L491 198L573 198L573 255L655 255L655 201L736 201L736 181L818 181L818 213L900 213L900 249L900 0L900 0L818 0L818 0L736 0L736 0L655 0L655 0L573 0L573 0L491 0L491 0L409 0L409 0L327 0L327 0L245 0L245 0L164 0L164 0L82 0L82 0L0 0Z" fill="#5b64ab"/><path d="M0 165L82 165L82 182L164 182L164 157L245 157L245 159L327 159L327 210L409 210L409 135L491 135L491 141L573 141L573 179L655 179L655 138L736 138L736 185L818 185L818 201L900 201L900 149L900 0L900 0L818 0L818 0L736 0L736 0L655 0L655 0L573 0L573 0L491 0L491 0L409 0L409 0L327 0L327 0L245 0L245 0L164 0L164 0L82 0L82 0L0 0Z" fill="#6f77b8"/><path d="M0 141L82 141L82 107L164 107L164 159L245 159L245 115L327 115L327 125L409 125L409 90L491 90L491 124L573 124L573 164L655 164L655 146L736 146L736 115L818 115L818 152L900 152L900 100L900 0L900 0L818 0L818 0L736 0L736 0L655 0L655 0L573 0L573 0L491 0L491 0L409 0L409 0L327 0L327 0L245 0L245 0L164 0L164 0L82 0L82 0L0 0Z" fill="#838ac4"/><path d="M0 114L82 114L82 90L164 90L164 113L245 113L245 106L327 106L327 87L409 87L409 119L491 119L491 111L573 111L573 101L655 101L655 118L736 118L736 96L818 96L818 89L900 89L900 74L900 0L900 0L818 0L818 0L736 0L736 0L655 0L655 0L573 0L573 0L491 0L491 0L409 0L409 0L327 0L327 0L245 0L245 0L164 0L164 0L82 0L82 0L0 0Z" fill="#979dd1"/><path d="M0 37L82 37L82 69L164 69L164 39L245 39L245 76L327 76L327 22L409 22L409 79L491 79L491 51L573 51L573 43L655 43L655 74L736 74L736 61L818 61L818 69L900 69L900 68L900 0L900 0L818 0L818 0L736 0L736 0L655 0L655 0L573 0L573 0L491 0L491 0L409 0L409 0L327 0L327 0L245 0L245 0L164 0L164 0L82 0L82 0L0 0Z" fill="#abb1dd"/></svg>